<mxfile host="Electron" agent="Mozilla/5.0 (Windows NT 10.0; Win64; x64) AppleWebKit/537.36 (KHTML, like Gecko) draw.io/26.0.16 Chrome/132.0.6834.196 Electron/34.2.0 Safari/537.36" version="26.0.16">
  <diagram id="C5RBs43oDa-KdzZeNtuy" name="Page-1">
    <mxGraphModel dx="3800" dy="1036" grid="1" gridSize="10" guides="1" tooltips="1" connect="1" arrows="1" fold="1" page="1" pageScale="1" pageWidth="827" pageHeight="1169" math="0" shadow="0">
      <root>
        <mxCell id="WIyWlLk6GJQsqaUBKTNV-0" />
        <mxCell id="WIyWlLk6GJQsqaUBKTNV-1" parent="WIyWlLk6GJQsqaUBKTNV-0" />
        <mxCell id="xA63K1zaiMiuflqrWEw4-0" value="&lt;b&gt;&lt;font style=&quot;font-size: 22px;&quot;&gt;类&lt;/font&gt;&lt;/b&gt;" style="text;html=1;align=center;verticalAlign=middle;resizable=0;points=[];autosize=1;strokeColor=none;fillColor=none;" vertex="1" parent="WIyWlLk6GJQsqaUBKTNV-1">
          <mxGeometry x="-623" y="50" width="50" height="40" as="geometry" />
        </mxCell>
        <mxCell id="xA63K1zaiMiuflqrWEw4-1" value="&lt;font style=&quot;font-size: 17px;&quot;&gt;&lt;b&gt;big-market-api层&lt;/b&gt;&lt;/font&gt;" style="text;html=1;align=center;verticalAlign=middle;resizable=0;points=[];autosize=1;strokeColor=none;fillColor=none;" vertex="1" parent="WIyWlLk6GJQsqaUBKTNV-1">
          <mxGeometry x="-1070" y="168" width="160" height="30" as="geometry" />
        </mxCell>
        <mxCell id="xA63K1zaiMiuflqrWEw4-10" value="&lt;p style=&quot;margin:0px;margin-top:4px;text-align:center;&quot;&gt;&lt;i&gt;&amp;lt;&amp;lt;Interface&amp;gt;&amp;gt;&lt;/i&gt;&lt;br&gt;&lt;b&gt;IRaffService&lt;/b&gt;&lt;/p&gt;&lt;br&gt;&lt;hr size=&quot;1&quot; style=&quot;border-style:solid;&quot;&gt;&lt;p style=&quot;margin:0px;margin-left:4px;&quot;&gt;&amp;nbsp;+ strategyArmory(Long strategyId)&amp;nbsp; : Response&amp;lt;Boolean&amp;gt;&lt;br&gt;&lt;/p&gt;&lt;p style=&quot;margin:0px;margin-left:4px;&quot;&gt;&amp;nbsp;: 策略装配接口&lt;/p&gt;&lt;p style=&quot;margin:0px;margin-left:4px;&quot;&gt;+ queryRaffleAwardList(RaffleAwardListRequestDTO)&lt;br&gt;Response&amp;lt;List&amp;lt;RaffleAwardListResponseDTO&amp;gt;&amp;gt; : 查询奖品列表接口&lt;/p&gt;&lt;p style=&quot;margin:0px;margin-left:4px;&quot;&gt;+ randomRaffle(RaffleRequestDTO) Response&amp;lt;RaffleResponseDTO&amp;gt; : 随机抽奖接口&lt;/p&gt;" style="verticalAlign=top;align=left;overflow=fill;html=1;whiteSpace=wrap;" vertex="1" parent="WIyWlLk6GJQsqaUBKTNV-1">
          <mxGeometry x="-850" y="130" width="380" height="200" as="geometry" />
        </mxCell>
        <mxCell id="xA63K1zaiMiuflqrWEw4-27" style="edgeStyle=orthogonalEdgeStyle;rounded=0;orthogonalLoop=1;jettySize=auto;html=1;" edge="1" parent="WIyWlLk6GJQsqaUBKTNV-1" source="xA63K1zaiMiuflqrWEw4-23" target="xA63K1zaiMiuflqrWEw4-10">
          <mxGeometry relative="1" as="geometry" />
        </mxCell>
        <mxCell id="xA63K1zaiMiuflqrWEw4-23" value="RaffleController" style="swimlane;fontStyle=1;align=center;verticalAlign=top;childLayout=stackLayout;horizontal=1;startSize=26;horizontalStack=0;resizeParent=1;resizeParentMax=0;resizeLast=0;collapsible=1;marginBottom=0;whiteSpace=wrap;html=1;" vertex="1" parent="WIyWlLk6GJQsqaUBKTNV-1">
          <mxGeometry x="-740" y="430" width="160" height="86" as="geometry" />
        </mxCell>
        <mxCell id="xA63K1zaiMiuflqrWEw4-24" value="+ field: type" style="text;strokeColor=none;fillColor=none;align=left;verticalAlign=top;spacingLeft=4;spacingRight=4;overflow=hidden;rotatable=0;points=[[0,0.5],[1,0.5]];portConstraint=eastwest;whiteSpace=wrap;html=1;" vertex="1" parent="xA63K1zaiMiuflqrWEw4-23">
          <mxGeometry y="26" width="160" height="26" as="geometry" />
        </mxCell>
        <mxCell id="xA63K1zaiMiuflqrWEw4-25" value="" style="line;strokeWidth=1;fillColor=none;align=left;verticalAlign=middle;spacingTop=-1;spacingLeft=3;spacingRight=3;rotatable=0;labelPosition=right;points=[];portConstraint=eastwest;strokeColor=inherit;" vertex="1" parent="xA63K1zaiMiuflqrWEw4-23">
          <mxGeometry y="52" width="160" height="8" as="geometry" />
        </mxCell>
        <mxCell id="xA63K1zaiMiuflqrWEw4-26" value="+ method(type): type" style="text;strokeColor=none;fillColor=none;align=left;verticalAlign=top;spacingLeft=4;spacingRight=4;overflow=hidden;rotatable=0;points=[[0,0.5],[1,0.5]];portConstraint=eastwest;whiteSpace=wrap;html=1;" vertex="1" parent="xA63K1zaiMiuflqrWEw4-23">
          <mxGeometry y="60" width="160" height="26" as="geometry" />
        </mxCell>
        <mxCell id="xA63K1zaiMiuflqrWEw4-29" value="&lt;font style=&quot;font-size: 17px;&quot;&gt;&lt;b&gt;big-market-trigger层&lt;/b&gt;&lt;/font&gt;" style="text;html=1;align=center;verticalAlign=middle;resizable=0;points=[];autosize=1;strokeColor=none;fillColor=none;" vertex="1" parent="WIyWlLk6GJQsqaUBKTNV-1">
          <mxGeometry x="-1085" y="450" width="190" height="30" as="geometry" />
        </mxCell>
        <mxCell id="xA63K1zaiMiuflqrWEw4-30" value="&lt;font style=&quot;font-size: 17px;&quot;&gt;&lt;b&gt;big-market-domain层&lt;/b&gt;&lt;/font&gt;" style="text;html=1;align=center;verticalAlign=middle;resizable=0;points=[];autosize=1;strokeColor=none;fillColor=none;" vertex="1" parent="WIyWlLk6GJQsqaUBKTNV-1">
          <mxGeometry x="-1085" y="750" width="190" height="30" as="geometry" />
        </mxCell>
        <mxCell id="xA63K1zaiMiuflqrWEw4-31" value="&lt;p style=&quot;margin:0px;margin-top:4px;text-align:center;&quot;&gt;&lt;i&gt;&amp;lt;&amp;lt;Interface&amp;gt;&amp;gt;&lt;/i&gt;&lt;br&gt;&lt;b&gt;IRaffleAward&lt;/b&gt;&lt;/p&gt;&lt;hr size=&quot;1&quot; style=&quot;border-style:solid;&quot;&gt;&lt;p style=&quot;margin:0px;margin-left:4px;&quot;&gt;策略奖品接口, 查询奖品信息&lt;/p&gt;&lt;hr size=&quot;1&quot; style=&quot;border-style:solid;&quot;&gt;&lt;p style=&quot;margin:0px;margin-left:4px;&quot;&gt;+ queryRaffleStrategyAwardList(Long strategyId) : List&amp;lt;StrategyAwardEntity&amp;gt;&lt;/p&gt;" style="verticalAlign=top;align=left;overflow=fill;html=1;whiteSpace=wrap;" vertex="1" parent="WIyWlLk6GJQsqaUBKTNV-1">
          <mxGeometry x="-880" y="670" width="230" height="130" as="geometry" />
        </mxCell>
        <mxCell id="xA63K1zaiMiuflqrWEw4-32" value="&lt;p style=&quot;margin:0px;margin-top:4px;text-align:center;&quot;&gt;&lt;i&gt;&amp;lt;&amp;lt;Interface&amp;gt;&amp;gt;&lt;/i&gt;&lt;br&gt;&lt;b&gt;IRaffleStock&lt;/b&gt;&lt;/p&gt;&lt;hr size=&quot;1&quot; style=&quot;border-style:solid;&quot;&gt;&lt;p style=&quot;margin:0px;margin-left:4px;&quot;&gt;库存缓存接口, 将所有的奖品缓存到redis中&lt;/p&gt;" style="verticalAlign=top;align=left;overflow=fill;html=1;whiteSpace=wrap;" vertex="1" parent="WIyWlLk6GJQsqaUBKTNV-1">
          <mxGeometry x="-550" y="670" width="220" height="130" as="geometry" />
        </mxCell>
        <mxCell id="xA63K1zaiMiuflqrWEw4-37" style="edgeStyle=orthogonalEdgeStyle;rounded=0;orthogonalLoop=1;jettySize=auto;html=1;" edge="1" parent="WIyWlLk6GJQsqaUBKTNV-1" source="xA63K1zaiMiuflqrWEw4-33" target="xA63K1zaiMiuflqrWEw4-31">
          <mxGeometry relative="1" as="geometry" />
        </mxCell>
        <mxCell id="xA63K1zaiMiuflqrWEw4-38" style="edgeStyle=orthogonalEdgeStyle;rounded=0;orthogonalLoop=1;jettySize=auto;html=1;entryX=0.5;entryY=1;entryDx=0;entryDy=0;" edge="1" parent="WIyWlLk6GJQsqaUBKTNV-1" source="xA63K1zaiMiuflqrWEw4-33" target="xA63K1zaiMiuflqrWEw4-32">
          <mxGeometry relative="1" as="geometry" />
        </mxCell>
        <mxCell id="xA63K1zaiMiuflqrWEw4-33" value="DefaultRaffleStrategy" style="swimlane;fontStyle=1;align=center;verticalAlign=top;childLayout=stackLayout;horizontal=1;startSize=26;horizontalStack=0;resizeParent=1;resizeParentMax=0;resizeLast=0;collapsible=1;marginBottom=0;whiteSpace=wrap;html=1;" vertex="1" parent="WIyWlLk6GJQsqaUBKTNV-1">
          <mxGeometry x="-660" y="920" width="160" height="86" as="geometry" />
        </mxCell>
        <mxCell id="xA63K1zaiMiuflqrWEw4-34" value="+ field: type" style="text;strokeColor=none;fillColor=none;align=left;verticalAlign=top;spacingLeft=4;spacingRight=4;overflow=hidden;rotatable=0;points=[[0,0.5],[1,0.5]];portConstraint=eastwest;whiteSpace=wrap;html=1;" vertex="1" parent="xA63K1zaiMiuflqrWEw4-33">
          <mxGeometry y="26" width="160" height="26" as="geometry" />
        </mxCell>
        <mxCell id="xA63K1zaiMiuflqrWEw4-35" value="" style="line;strokeWidth=1;fillColor=none;align=left;verticalAlign=middle;spacingTop=-1;spacingLeft=3;spacingRight=3;rotatable=0;labelPosition=right;points=[];portConstraint=eastwest;strokeColor=inherit;" vertex="1" parent="xA63K1zaiMiuflqrWEw4-33">
          <mxGeometry y="52" width="160" height="8" as="geometry" />
        </mxCell>
        <mxCell id="xA63K1zaiMiuflqrWEw4-36" value="+ method(type): type" style="text;strokeColor=none;fillColor=none;align=left;verticalAlign=top;spacingLeft=4;spacingRight=4;overflow=hidden;rotatable=0;points=[[0,0.5],[1,0.5]];portConstraint=eastwest;whiteSpace=wrap;html=1;" vertex="1" parent="xA63K1zaiMiuflqrWEw4-33">
          <mxGeometry y="60" width="160" height="26" as="geometry" />
        </mxCell>
        <mxCell id="xA63K1zaiMiuflqrWEw4-39" value="DTO对象" style="text;html=1;align=center;verticalAlign=middle;resizable=0;points=[];autosize=1;strokeColor=none;fillColor=none;fontStyle=1;fontSize=17;" vertex="1" parent="WIyWlLk6GJQsqaUBKTNV-1">
          <mxGeometry x="-1095" y="1108" width="90" height="30" as="geometry" />
        </mxCell>
        <mxCell id="xA63K1zaiMiuflqrWEw4-40" value="RaffleAwardListResponseDTO" style="swimlane;fontStyle=0;childLayout=stackLayout;horizontal=1;startSize=26;fillColor=none;horizontalStack=0;resizeParent=1;resizeParentMax=0;resizeLast=0;collapsible=1;marginBottom=0;whiteSpace=wrap;html=1;" vertex="1" parent="WIyWlLk6GJQsqaUBKTNV-1">
          <mxGeometry x="-640" y="1112" width="197" height="130" as="geometry" />
        </mxCell>
        <mxCell id="xA63K1zaiMiuflqrWEw4-41" value="+ awardId : Integer" style="text;strokeColor=none;fillColor=none;align=left;verticalAlign=top;spacingLeft=4;spacingRight=4;overflow=hidden;rotatable=0;points=[[0,0.5],[1,0.5]];portConstraint=eastwest;whiteSpace=wrap;html=1;" vertex="1" parent="xA63K1zaiMiuflqrWEw4-40">
          <mxGeometry y="26" width="197" height="26" as="geometry" />
        </mxCell>
        <mxCell id="xA63K1zaiMiuflqrWEw4-42" value="+ awardTitle : String" style="text;strokeColor=none;fillColor=none;align=left;verticalAlign=top;spacingLeft=4;spacingRight=4;overflow=hidden;rotatable=0;points=[[0,0.5],[1,0.5]];portConstraint=eastwest;whiteSpace=wrap;html=1;" vertex="1" parent="xA63K1zaiMiuflqrWEw4-40">
          <mxGeometry y="52" width="197" height="26" as="geometry" />
        </mxCell>
        <mxCell id="xA63K1zaiMiuflqrWEw4-43" value="+ awardSubtitle : String&lt;br&gt;&lt;br&gt;&lt;div&gt;+ sort : Integer&lt;/div&gt;" style="text;strokeColor=none;fillColor=none;align=left;verticalAlign=top;spacingLeft=4;spacingRight=4;overflow=hidden;rotatable=0;points=[[0,0.5],[1,0.5]];portConstraint=eastwest;whiteSpace=wrap;html=1;" vertex="1" parent="xA63K1zaiMiuflqrWEw4-40">
          <mxGeometry y="78" width="197" height="52" as="geometry" />
        </mxCell>
        <mxCell id="xA63K1zaiMiuflqrWEw4-44" value="RaffleRequsetDTO" style="swimlane;fontStyle=0;childLayout=stackLayout;horizontal=1;startSize=26;fillColor=none;horizontalStack=0;resizeParent=1;resizeParentMax=0;resizeLast=0;collapsible=1;marginBottom=0;whiteSpace=wrap;html=1;" vertex="1" parent="WIyWlLk6GJQsqaUBKTNV-1">
          <mxGeometry x="-890" y="1352" width="197" height="52" as="geometry" />
        </mxCell>
        <mxCell id="xA63K1zaiMiuflqrWEw4-45" value="+ strategyId : Long" style="text;strokeColor=none;fillColor=none;align=left;verticalAlign=top;spacingLeft=4;spacingRight=4;overflow=hidden;rotatable=0;points=[[0,0.5],[1,0.5]];portConstraint=eastwest;whiteSpace=wrap;html=1;" vertex="1" parent="xA63K1zaiMiuflqrWEw4-44">
          <mxGeometry y="26" width="197" height="26" as="geometry" />
        </mxCell>
        <mxCell id="xA63K1zaiMiuflqrWEw4-48" value="抽奖奖品列表, 应答对象" style="text;html=1;align=center;verticalAlign=middle;resizable=0;points=[];autosize=1;strokeColor=none;fillColor=none;" vertex="1" parent="WIyWlLk6GJQsqaUBKTNV-1">
          <mxGeometry x="-616.5" y="1080" width="150" height="30" as="geometry" />
        </mxCell>
        <mxCell id="xA63K1zaiMiuflqrWEw4-51" value="抽奖请求参数" style="text;html=1;align=center;verticalAlign=middle;resizable=0;points=[];autosize=1;strokeColor=none;fillColor=none;" vertex="1" parent="WIyWlLk6GJQsqaUBKTNV-1">
          <mxGeometry x="-841.5" y="1320" width="100" height="30" as="geometry" />
        </mxCell>
        <mxCell id="xA63K1zaiMiuflqrWEw4-52" value="RaffleResponseDTO" style="swimlane;fontStyle=0;childLayout=stackLayout;horizontal=1;startSize=26;fillColor=none;horizontalStack=0;resizeParent=1;resizeParentMax=0;resizeLast=0;collapsible=1;marginBottom=0;whiteSpace=wrap;html=1;" vertex="1" parent="WIyWlLk6GJQsqaUBKTNV-1">
          <mxGeometry x="-650" y="1352" width="197" height="120" as="geometry" />
        </mxCell>
        <mxCell id="xA63K1zaiMiuflqrWEw4-53" value="+ awardId : Integer 奖品ID&lt;br&gt;+ awardIndex : 排序编号 : 策略奖品配置的奖品顺序编号, sort字段是奖品在前端页面上显示的顺序, 返回这个奖品的index是方便前端显示" style="text;strokeColor=none;fillColor=none;align=left;verticalAlign=top;spacingLeft=4;spacingRight=4;overflow=hidden;rotatable=0;points=[[0,0.5],[1,0.5]];portConstraint=eastwest;whiteSpace=wrap;html=1;" vertex="1" parent="xA63K1zaiMiuflqrWEw4-52">
          <mxGeometry y="26" width="197" height="94" as="geometry" />
        </mxCell>
        <mxCell id="xA63K1zaiMiuflqrWEw4-54" value="抽奖应答结果" style="text;html=1;align=center;verticalAlign=middle;resizable=0;points=[];autosize=1;strokeColor=none;fillColor=none;" vertex="1" parent="WIyWlLk6GJQsqaUBKTNV-1">
          <mxGeometry x="-601.5" y="1320" width="100" height="30" as="geometry" />
        </mxCell>
        <mxCell id="xA63K1zaiMiuflqrWEw4-55" value="RaffleAwardListRequestDTO" style="swimlane;fontStyle=0;childLayout=stackLayout;horizontal=1;startSize=26;fillColor=none;horizontalStack=0;resizeParent=1;resizeParentMax=0;resizeLast=0;collapsible=1;marginBottom=0;whiteSpace=wrap;html=1;" vertex="1" parent="WIyWlLk6GJQsqaUBKTNV-1">
          <mxGeometry x="-895" y="1112" width="197" height="52" as="geometry" />
        </mxCell>
        <mxCell id="xA63K1zaiMiuflqrWEw4-56" value="+ strategyId : Long" style="text;strokeColor=none;fillColor=none;align=left;verticalAlign=top;spacingLeft=4;spacingRight=4;overflow=hidden;rotatable=0;points=[[0,0.5],[1,0.5]];portConstraint=eastwest;whiteSpace=wrap;html=1;" vertex="1" parent="xA63K1zaiMiuflqrWEw4-55">
          <mxGeometry y="26" width="197" height="26" as="geometry" />
        </mxCell>
        <mxCell id="xA63K1zaiMiuflqrWEw4-59" value="抽奖奖品列表, 请求参数" style="text;html=1;align=center;verticalAlign=middle;resizable=0;points=[];autosize=1;strokeColor=none;fillColor=none;" vertex="1" parent="WIyWlLk6GJQsqaUBKTNV-1">
          <mxGeometry x="-866.5" y="1078" width="150" height="30" as="geometry" />
        </mxCell>
        <mxCell id="xA63K1zaiMiuflqrWEw4-60" value="Response&amp;lt;T&amp;gt;" style="text;html=1;align=center;verticalAlign=middle;resizable=0;points=[];autosize=1;strokeColor=none;fillColor=none;fontStyle=1;fontSize=17;" vertex="1" parent="WIyWlLk6GJQsqaUBKTNV-1">
          <mxGeometry x="-1125" y="1638" width="130" height="30" as="geometry" />
        </mxCell>
        <mxCell id="xA63K1zaiMiuflqrWEw4-61" value="Classname" style="swimlane;fontStyle=0;childLayout=stackLayout;horizontal=1;startSize=26;fillColor=none;horizontalStack=0;resizeParent=1;resizeParentMax=0;resizeLast=0;collapsible=1;marginBottom=0;whiteSpace=wrap;html=1;" vertex="1" parent="WIyWlLk6GJQsqaUBKTNV-1">
          <mxGeometry x="-890" y="1638" width="140" height="104" as="geometry" />
        </mxCell>
        <mxCell id="xA63K1zaiMiuflqrWEw4-62" value="+ code : String" style="text;strokeColor=none;fillColor=none;align=left;verticalAlign=top;spacingLeft=4;spacingRight=4;overflow=hidden;rotatable=0;points=[[0,0.5],[1,0.5]];portConstraint=eastwest;whiteSpace=wrap;html=1;" vertex="1" parent="xA63K1zaiMiuflqrWEw4-61">
          <mxGeometry y="26" width="140" height="26" as="geometry" />
        </mxCell>
        <mxCell id="xA63K1zaiMiuflqrWEw4-63" value="+ info : String" style="text;strokeColor=none;fillColor=none;align=left;verticalAlign=top;spacingLeft=4;spacingRight=4;overflow=hidden;rotatable=0;points=[[0,0.5],[1,0.5]];portConstraint=eastwest;whiteSpace=wrap;html=1;" vertex="1" parent="xA63K1zaiMiuflqrWEw4-61">
          <mxGeometry y="52" width="140" height="26" as="geometry" />
        </mxCell>
        <mxCell id="xA63K1zaiMiuflqrWEw4-64" value="+ data : T" style="text;strokeColor=none;fillColor=none;align=left;verticalAlign=top;spacingLeft=4;spacingRight=4;overflow=hidden;rotatable=0;points=[[0,0.5],[1,0.5]];portConstraint=eastwest;whiteSpace=wrap;html=1;" vertex="1" parent="xA63K1zaiMiuflqrWEw4-61">
          <mxGeometry y="78" width="140" height="26" as="geometry" />
        </mxCell>
        <mxCell id="xA63K1zaiMiuflqrWEw4-66" value="Response对象" style="text;html=1;align=center;verticalAlign=middle;resizable=0;points=[];autosize=1;strokeColor=none;fillColor=none;" vertex="1" parent="WIyWlLk6GJQsqaUBKTNV-1">
          <mxGeometry x="-875" y="1600" width="100" height="30" as="geometry" />
        </mxCell>
        <mxCell id="xA63K1zaiMiuflqrWEw4-67" value="查询奖品列表接口" style="text;html=1;align=center;verticalAlign=middle;resizable=0;points=[];autosize=1;strokeColor=none;fillColor=none;fontSize=15;" vertex="1" parent="WIyWlLk6GJQsqaUBKTNV-1">
          <mxGeometry x="-10" y="68" width="140" height="30" as="geometry" />
        </mxCell>
        <mxCell id="xA63K1zaiMiuflqrWEw4-68" value="&lt;font style=&quot;font-size: 15px;&quot;&gt;策略装配接口&lt;/font&gt;" style="text;html=1;align=center;verticalAlign=middle;resizable=0;points=[];autosize=1;strokeColor=none;fillColor=none;" vertex="1" parent="WIyWlLk6GJQsqaUBKTNV-1">
          <mxGeometry x="600" y="68" width="110" height="30" as="geometry" />
        </mxCell>
        <mxCell id="xA63K1zaiMiuflqrWEw4-69" value="&lt;font style=&quot;font-size: 15px;&quot;&gt;随机抽奖接口&lt;/font&gt;" style="text;html=1;align=center;verticalAlign=middle;resizable=0;points=[];autosize=1;strokeColor=none;fillColor=none;" vertex="1" parent="WIyWlLk6GJQsqaUBKTNV-1">
          <mxGeometry x="1100" y="68" width="110" height="30" as="geometry" />
        </mxCell>
        <mxCell id="xA63K1zaiMiuflqrWEw4-81" value="" style="edgeStyle=orthogonalEdgeStyle;rounded=0;orthogonalLoop=1;jettySize=auto;html=1;" edge="1" parent="WIyWlLk6GJQsqaUBKTNV-1" source="xA63K1zaiMiuflqrWEw4-75" target="xA63K1zaiMiuflqrWEw4-80">
          <mxGeometry relative="1" as="geometry" />
        </mxCell>
        <mxCell id="xA63K1zaiMiuflqrWEw4-75" value="&lt;span style=&quot;font-weight: 700;&quot;&gt;queryRaffleAwardList&lt;/span&gt;" style="rounded=1;whiteSpace=wrap;html=1;" vertex="1" parent="WIyWlLk6GJQsqaUBKTNV-1">
          <mxGeometry x="-30" y="159.75" width="180" height="47" as="geometry" />
        </mxCell>
        <mxCell id="xA63K1zaiMiuflqrWEw4-77" style="edgeStyle=orthogonalEdgeStyle;rounded=0;orthogonalLoop=1;jettySize=auto;html=1;" edge="1" parent="WIyWlLk6GJQsqaUBKTNV-1" source="xA63K1zaiMiuflqrWEw4-76" target="xA63K1zaiMiuflqrWEw4-75">
          <mxGeometry relative="1" as="geometry" />
        </mxCell>
        <mxCell id="xA63K1zaiMiuflqrWEw4-76" value="RaffleAwardListRequestDTO" style="shape=parallelogram;html=1;strokeWidth=2;perimeter=parallelogramPerimeter;whiteSpace=wrap;rounded=1;arcSize=12;size=0.23;" vertex="1" parent="WIyWlLk6GJQsqaUBKTNV-1">
          <mxGeometry x="-330" y="150" width="230" height="66.5" as="geometry" />
        </mxCell>
        <mxCell id="xA63K1zaiMiuflqrWEw4-79" style="edgeStyle=orthogonalEdgeStyle;rounded=0;orthogonalLoop=1;jettySize=auto;html=1;" edge="1" parent="WIyWlLk6GJQsqaUBKTNV-1" source="xA63K1zaiMiuflqrWEw4-78" target="xA63K1zaiMiuflqrWEw4-76">
          <mxGeometry relative="1" as="geometry" />
        </mxCell>
        <mxCell id="xA63K1zaiMiuflqrWEw4-78" value="strategyId" style="rounded=1;whiteSpace=wrap;html=1;" vertex="1" parent="WIyWlLk6GJQsqaUBKTNV-1">
          <mxGeometry x="-275" y="60" width="120" height="60" as="geometry" />
        </mxCell>
        <mxCell id="xA63K1zaiMiuflqrWEw4-85" value="" style="edgeStyle=orthogonalEdgeStyle;rounded=0;orthogonalLoop=1;jettySize=auto;html=1;" edge="1" parent="WIyWlLk6GJQsqaUBKTNV-1" source="xA63K1zaiMiuflqrWEw4-80" target="xA63K1zaiMiuflqrWEw4-84">
          <mxGeometry relative="1" as="geometry" />
        </mxCell>
        <mxCell id="xA63K1zaiMiuflqrWEw4-80" value="IRaffleAward::queryRaffleStrategyAwardList" style="whiteSpace=wrap;html=1;rounded=1;" vertex="1" parent="WIyWlLk6GJQsqaUBKTNV-1">
          <mxGeometry x="-80" y="240.25" width="280" height="59.75" as="geometry" />
        </mxCell>
        <mxCell id="xA63K1zaiMiuflqrWEw4-90" value="" style="edgeStyle=orthogonalEdgeStyle;rounded=0;orthogonalLoop=1;jettySize=auto;html=1;" edge="1" parent="WIyWlLk6GJQsqaUBKTNV-1" source="xA63K1zaiMiuflqrWEw4-84" target="xA63K1zaiMiuflqrWEw4-89">
          <mxGeometry relative="1" as="geometry" />
        </mxCell>
        <mxCell id="xA63K1zaiMiuflqrWEw4-84" value="reposity::queryStrategyAwardList" style="whiteSpace=wrap;html=1;rounded=1;" vertex="1" parent="WIyWlLk6GJQsqaUBKTNV-1">
          <mxGeometry x="-80" y="360" width="280" height="59.75" as="geometry" />
        </mxCell>
        <mxCell id="xA63K1zaiMiuflqrWEw4-86" value="通过strategyId, 获取所有StrategyAward对象,&lt;div&gt;优先从缓存中获取, Key为STRATEGY_AWARD_LIST_KEY&lt;/div&gt;" style="text;html=1;align=center;verticalAlign=middle;resizable=0;points=[];autosize=1;strokeColor=none;fillColor=none;" vertex="1" parent="WIyWlLk6GJQsqaUBKTNV-1">
          <mxGeometry x="60" y="320" width="340" height="40" as="geometry" />
        </mxCell>
        <mxCell id="xA63K1zaiMiuflqrWEw4-92" value="" style="edgeStyle=orthogonalEdgeStyle;rounded=0;orthogonalLoop=1;jettySize=auto;html=1;" edge="1" parent="WIyWlLk6GJQsqaUBKTNV-1" source="xA63K1zaiMiuflqrWEw4-89" target="xA63K1zaiMiuflqrWEw4-91">
          <mxGeometry relative="1" as="geometry" />
        </mxCell>
        <mxCell id="xA63K1zaiMiuflqrWEw4-89" value="List&amp;lt;StrategyAwardEntity&amp;gt;" style="shape=parallelogram;perimeter=parallelogramPerimeter;whiteSpace=wrap;html=1;fixedSize=1;rounded=1;" vertex="1" parent="WIyWlLk6GJQsqaUBKTNV-1">
          <mxGeometry x="-40" y="460" width="200" height="74.01" as="geometry" />
        </mxCell>
        <mxCell id="xA63K1zaiMiuflqrWEw4-94" value="" style="edgeStyle=orthogonalEdgeStyle;rounded=0;orthogonalLoop=1;jettySize=auto;html=1;" edge="1" parent="WIyWlLk6GJQsqaUBKTNV-1" source="xA63K1zaiMiuflqrWEw4-91" target="xA63K1zaiMiuflqrWEw4-93">
          <mxGeometry relative="1" as="geometry" />
        </mxCell>
        <mxCell id="xA63K1zaiMiuflqrWEw4-91" value="List&amp;lt;RaffleAwardListResponseDTO&amp;gt;" style="whiteSpace=wrap;html=1;rounded=1;" vertex="1" parent="WIyWlLk6GJQsqaUBKTNV-1">
          <mxGeometry x="-50" y="570.01" width="220" height="70" as="geometry" />
        </mxCell>
        <mxCell id="xA63K1zaiMiuflqrWEw4-96" value="" style="edgeStyle=orthogonalEdgeStyle;rounded=0;orthogonalLoop=1;jettySize=auto;html=1;" edge="1" parent="WIyWlLk6GJQsqaUBKTNV-1" source="xA63K1zaiMiuflqrWEw4-93" target="xA63K1zaiMiuflqrWEw4-95">
          <mxGeometry relative="1" as="geometry" />
        </mxCell>
        <mxCell id="xA63K1zaiMiuflqrWEw4-93" value="Response&amp;lt;List&amp;lt;RaffleAwardListResponseDTO&amp;gt;" style="whiteSpace=wrap;html=1;rounded=1;" vertex="1" parent="WIyWlLk6GJQsqaUBKTNV-1">
          <mxGeometry x="-75" y="660" width="270" height="60" as="geometry" />
        </mxCell>
        <mxCell id="xA63K1zaiMiuflqrWEw4-95" value="返回" style="whiteSpace=wrap;html=1;rounded=1;" vertex="1" parent="WIyWlLk6GJQsqaUBKTNV-1">
          <mxGeometry y="740" width="120" height="60" as="geometry" />
        </mxCell>
        <mxCell id="xA63K1zaiMiuflqrWEw4-101" value="" style="edgeStyle=orthogonalEdgeStyle;rounded=0;orthogonalLoop=1;jettySize=auto;html=1;" edge="1" parent="WIyWlLk6GJQsqaUBKTNV-1" source="xA63K1zaiMiuflqrWEw4-97" target="xA63K1zaiMiuflqrWEw4-100">
          <mxGeometry relative="1" as="geometry" />
        </mxCell>
        <mxCell id="xA63K1zaiMiuflqrWEw4-97" value="strategyId" style="shape=parallelogram;perimeter=parallelogramPerimeter;whiteSpace=wrap;html=1;fixedSize=1;rounded=1;" vertex="1" parent="WIyWlLk6GJQsqaUBKTNV-1">
          <mxGeometry x="430" y="153" width="120" height="60" as="geometry" />
        </mxCell>
        <mxCell id="xA63K1zaiMiuflqrWEw4-98" value="这层封装是为了未来的拓展" style="text;html=1;align=center;verticalAlign=middle;resizable=0;points=[];autosize=1;strokeColor=none;fillColor=none;" vertex="1" parent="WIyWlLk6GJQsqaUBKTNV-1">
          <mxGeometry x="-345" y="238" width="170" height="30" as="geometry" />
        </mxCell>
        <mxCell id="xA63K1zaiMiuflqrWEw4-99" value="这里不需要封装的原因是,&amp;nbsp;&lt;div&gt;我们基本能确定我们通过策略Id肯定是唯一对应一个策略的&lt;/div&gt;" style="text;html=1;align=center;verticalAlign=middle;resizable=0;points=[];autosize=1;strokeColor=none;fillColor=none;" vertex="1" parent="WIyWlLk6GJQsqaUBKTNV-1">
          <mxGeometry x="249" y="105" width="330" height="40" as="geometry" />
        </mxCell>
        <mxCell id="xA63K1zaiMiuflqrWEw4-103" value="" style="edgeStyle=orthogonalEdgeStyle;rounded=0;orthogonalLoop=1;jettySize=auto;html=1;" edge="1" parent="WIyWlLk6GJQsqaUBKTNV-1" source="xA63K1zaiMiuflqrWEw4-100" target="xA63K1zaiMiuflqrWEw4-102">
          <mxGeometry relative="1" as="geometry" />
        </mxCell>
        <mxCell id="xA63K1zaiMiuflqrWEw4-100" value="&lt;b&gt;strategyArmory&lt;/b&gt;" style="whiteSpace=wrap;html=1;rounded=1;" vertex="1" parent="WIyWlLk6GJQsqaUBKTNV-1">
          <mxGeometry x="600" y="153" width="120" height="60" as="geometry" />
        </mxCell>
        <mxCell id="xA63K1zaiMiuflqrWEw4-105" value="" style="edgeStyle=orthogonalEdgeStyle;rounded=0;orthogonalLoop=1;jettySize=auto;html=1;" edge="1" parent="WIyWlLk6GJQsqaUBKTNV-1" source="xA63K1zaiMiuflqrWEw4-102" target="xA63K1zaiMiuflqrWEw4-104">
          <mxGeometry relative="1" as="geometry" />
        </mxCell>
        <mxCell id="xA63K1zaiMiuflqrWEw4-102" value="strategyArmory::assembleLotteryStrategy" style="whiteSpace=wrap;html=1;rounded=1;" vertex="1" parent="WIyWlLk6GJQsqaUBKTNV-1">
          <mxGeometry x="530" y="240" width="260" height="60.25" as="geometry" />
        </mxCell>
        <mxCell id="xA63K1zaiMiuflqrWEw4-107" value="" style="edgeStyle=orthogonalEdgeStyle;rounded=0;orthogonalLoop=1;jettySize=auto;html=1;" edge="1" parent="WIyWlLk6GJQsqaUBKTNV-1" source="xA63K1zaiMiuflqrWEw4-104" target="xA63K1zaiMiuflqrWEw4-106">
          <mxGeometry relative="1" as="geometry" />
        </mxCell>
        <mxCell id="xA63K1zaiMiuflqrWEw4-104" value="status" style="whiteSpace=wrap;html=1;rounded=1;" vertex="1" parent="WIyWlLk6GJQsqaUBKTNV-1">
          <mxGeometry x="600" y="330" width="120" height="60" as="geometry" />
        </mxCell>
        <mxCell id="xA63K1zaiMiuflqrWEw4-123" value="" style="edgeStyle=orthogonalEdgeStyle;rounded=0;orthogonalLoop=1;jettySize=auto;html=1;" edge="1" parent="WIyWlLk6GJQsqaUBKTNV-1" source="xA63K1zaiMiuflqrWEw4-106" target="xA63K1zaiMiuflqrWEw4-122">
          <mxGeometry relative="1" as="geometry" />
        </mxCell>
        <mxCell id="xA63K1zaiMiuflqrWEw4-106" value="Response&amp;lt;Boolean&amp;gt;" style="whiteSpace=wrap;html=1;rounded=1;" vertex="1" parent="WIyWlLk6GJQsqaUBKTNV-1">
          <mxGeometry x="600" y="420" width="120" height="60" as="geometry" />
        </mxCell>
        <mxCell id="xA63K1zaiMiuflqrWEw4-113" value="" style="edgeStyle=orthogonalEdgeStyle;rounded=0;orthogonalLoop=1;jettySize=auto;html=1;" edge="1" parent="WIyWlLk6GJQsqaUBKTNV-1" source="xA63K1zaiMiuflqrWEw4-108" target="xA63K1zaiMiuflqrWEw4-112">
          <mxGeometry relative="1" as="geometry" />
        </mxCell>
        <mxCell id="xA63K1zaiMiuflqrWEw4-108" value="RaffleRequestDTO" style="shape=parallelogram;perimeter=parallelogramPerimeter;whiteSpace=wrap;html=1;fixedSize=1;" vertex="1" parent="WIyWlLk6GJQsqaUBKTNV-1">
          <mxGeometry x="930" y="149.75" width="140" height="60" as="geometry" />
        </mxCell>
        <mxCell id="xA63K1zaiMiuflqrWEw4-110" style="edgeStyle=orthogonalEdgeStyle;rounded=0;orthogonalLoop=1;jettySize=auto;html=1;entryX=0.5;entryY=0;entryDx=0;entryDy=0;" edge="1" parent="WIyWlLk6GJQsqaUBKTNV-1" source="xA63K1zaiMiuflqrWEw4-109" target="xA63K1zaiMiuflqrWEw4-108">
          <mxGeometry relative="1" as="geometry" />
        </mxCell>
        <mxCell id="xA63K1zaiMiuflqrWEw4-109" value="strategyId" style="rounded=1;whiteSpace=wrap;html=1;" vertex="1" parent="WIyWlLk6GJQsqaUBKTNV-1">
          <mxGeometry x="940" y="68" width="120" height="60" as="geometry" />
        </mxCell>
        <mxCell id="xA63K1zaiMiuflqrWEw4-111" value="同样是为了拓展, 比如正常来说,&lt;br&gt;&amp;nbsp;我们还需要传入userId,&lt;br&gt;但是这里因为是固定值, &lt;br&gt;所以不需要传入" style="text;html=1;align=center;verticalAlign=middle;resizable=0;points=[];autosize=1;strokeColor=none;fillColor=none;" vertex="1" parent="WIyWlLk6GJQsqaUBKTNV-1">
          <mxGeometry x="740" y="110" width="190" height="70" as="geometry" />
        </mxCell>
        <mxCell id="xA63K1zaiMiuflqrWEw4-115" value="" style="edgeStyle=orthogonalEdgeStyle;rounded=0;orthogonalLoop=1;jettySize=auto;html=1;" edge="1" parent="WIyWlLk6GJQsqaUBKTNV-1" source="xA63K1zaiMiuflqrWEw4-112" target="xA63K1zaiMiuflqrWEw4-114">
          <mxGeometry relative="1" as="geometry" />
        </mxCell>
        <mxCell id="xA63K1zaiMiuflqrWEw4-112" value="randomRaffle" style="rounded=1;whiteSpace=wrap;html=1;" vertex="1" parent="WIyWlLk6GJQsqaUBKTNV-1">
          <mxGeometry x="1100" y="149.75" width="120" height="60" as="geometry" />
        </mxCell>
        <mxCell id="xA63K1zaiMiuflqrWEw4-117" value="" style="edgeStyle=orthogonalEdgeStyle;rounded=0;orthogonalLoop=1;jettySize=auto;html=1;" edge="1" parent="WIyWlLk6GJQsqaUBKTNV-1" source="xA63K1zaiMiuflqrWEw4-114" target="xA63K1zaiMiuflqrWEw4-116">
          <mxGeometry relative="1" as="geometry" />
        </mxCell>
        <mxCell id="xA63K1zaiMiuflqrWEw4-114" value="raffleStrategy::performRaffle" style="whiteSpace=wrap;html=1;rounded=1;" vertex="1" parent="WIyWlLk6GJQsqaUBKTNV-1">
          <mxGeometry x="1080" y="240.25" width="160" height="49.75" as="geometry" />
        </mxCell>
        <mxCell id="xA63K1zaiMiuflqrWEw4-119" value="" style="edgeStyle=orthogonalEdgeStyle;rounded=0;orthogonalLoop=1;jettySize=auto;html=1;" edge="1" parent="WIyWlLk6GJQsqaUBKTNV-1" source="xA63K1zaiMiuflqrWEw4-116" target="xA63K1zaiMiuflqrWEw4-118">
          <mxGeometry relative="1" as="geometry" />
        </mxCell>
        <mxCell id="xA63K1zaiMiuflqrWEw4-116" value="raffleAwardEntity" style="whiteSpace=wrap;html=1;rounded=1;" vertex="1" parent="WIyWlLk6GJQsqaUBKTNV-1">
          <mxGeometry x="1100" y="319.995" width="120" height="60" as="geometry" />
        </mxCell>
        <mxCell id="xA63K1zaiMiuflqrWEw4-121" value="" style="edgeStyle=orthogonalEdgeStyle;rounded=0;orthogonalLoop=1;jettySize=auto;html=1;" edge="1" parent="WIyWlLk6GJQsqaUBKTNV-1" source="xA63K1zaiMiuflqrWEw4-118" target="xA63K1zaiMiuflqrWEw4-120">
          <mxGeometry relative="1" as="geometry" />
        </mxCell>
        <mxCell id="xA63K1zaiMiuflqrWEw4-118" value="Response&amp;lt;RaffleResponseDTO&amp;gt;" style="whiteSpace=wrap;html=1;rounded=1;" vertex="1" parent="WIyWlLk6GJQsqaUBKTNV-1">
          <mxGeometry x="1070" y="399.99" width="180" height="60.01" as="geometry" />
        </mxCell>
        <mxCell id="xA63K1zaiMiuflqrWEw4-120" value="return" style="whiteSpace=wrap;html=1;rounded=1;" vertex="1" parent="WIyWlLk6GJQsqaUBKTNV-1">
          <mxGeometry x="1100" y="489.995" width="120" height="60" as="geometry" />
        </mxCell>
        <mxCell id="xA63K1zaiMiuflqrWEw4-122" value="return" style="whiteSpace=wrap;html=1;rounded=1;" vertex="1" parent="WIyWlLk6GJQsqaUBKTNV-1">
          <mxGeometry x="600" y="500" width="120" height="60" as="geometry" />
        </mxCell>
      </root>
    </mxGraphModel>
  </diagram>
</mxfile>
